<?xml version="1.0" standalone="no"?>
<!DOCTYPE svg PUBLIC "-//W3C//DTD SVG 20010904//EN"
 "http://www.w3.org/TR/2001/REC-SVG-20010904/DTD/svg10.dtd">
<svg version="1.0" xmlns="http://www.w3.org/2000/svg"
 width="240.000000pt" height="240.000000pt" viewBox="0 0 240.000000 240.000000"
 preserveAspectRatio="xMidYMid meet">
<metadata>
Created by potrace 1.11, written by Peter Selinger 2001-2013
</metadata>
<g transform="translate(0.000000,240.000000) scale(0.100000,-0.100000)"
fill="#000000" stroke="none">
<path d="M1048 2285 c-93 -19 -186 -67 -252 -130 -110 -106 -170 -227 -295
-599 -49 -144 -120 -336 -159 -428 -99 -233 -113 -335 -62 -470 59 -158 287
-380 494 -481 138 -67 153 -70 385 -75 142 -3 235 0 275 8 266 52 609 331 691
564 51 144 29 245 -129 601 -8 17 -53 146 -100 288 -48 142 -104 296 -125 341
-106 231 -229 341 -421 379 -94 19 -215 20 -302 2z"/>
</g>
</svg>
